<svg xmlns="http://www.w3.org/2000/svg" xmlns:xlink="http://www.w3.org/1999/xlink" width="72.9" height="31" version="1.1" viewBox="0 0 729 317">
    <title>
        Logo Completo Simples
    </title>
    <desc>
        Created using Figma
    </desc>
    <g id="Canvas" transform="translate(1654 -238)">
        <g id="Logo Completo Simples">
            <g id="Logo Texto">
                <g id="portal">
                    <use fill="#222222" transform="translate(-1654 420)" xlink:href="#path0_fill"/>
                    <use fill="#222222" transform="translate(-1654 420)" xlink:href="#path1_fill"/>
                    <use fill="#222222" transform="translate(-1654 420)" xlink:href="#path2_fill"/>
                    <use fill="#222222" transform="translate(-1654 420)" xlink:href="#path3_fill"/>
                    <use fill="#222222" transform="translate(-1654 420)" xlink:href="#path4_fill"/>
                    <use fill="#222222" transform="translate(-1654 420)" xlink:href="#path5_fill"/>
                </g>
                <g id="home">
                    <use fill="#F27022" transform="translate(-1265 420.28)" xlink:href="#path6_fill"/>
                    <use fill="#F27022" transform="translate(-1265 420.28)" xlink:href="#path7_fill"/>
                    <use fill="#F27022" transform="translate(-1265 420.28)" xlink:href="#path8_fill"/>
                    <use fill="#F27022" transform="translate(-1265 420.28)" xlink:href="#path9_fill"/>
                </g>
            </g>
            <g id="Logo Casa">
                <g id="Casa Esquerda">
                    <g id="Vector">
                        <use fill="#F27022" transform="translate(-1485 276.494)" xlink:href="#path10_fill"/>
                    </g>
                    <g id="Vector">
                        <use fill="#F27022" transform="translate(-1454.73 347.474)" xlink:href="#path11_fill"/>
                    </g>
                </g>
                <g id="Casa Direita">
                    <g id="Vector">
                        <use fill="#222222" transform="translate(-1398.95 238)" xlink:href="#path12_fill"/>
                    </g>
                    <g id="Vector">
                        <use fill="#222222" transform="translate(-1206.39 329.788)" xlink:href="#path13_fill"/>
                    </g>
                </g>
            </g>
        </g>
    </g>
    <defs>
        <path id="path0_fill" d="M 33.88 29.54C 25.48 29.54 17.5 33.6 12.04 41.16L 11.06 31.22L 0 31.22L 0 134.82L 12.88 133.28L 12.88 98.28C 17.64 104.02 24.22 106.68 32.2 106.68C 51.24 106.68 61.18 90.44 61.18 68.04C 61.18 44.8 53.48 29.54 33.88 29.54ZM 29.12 96.18C 22.4 96.18 16.66 92.96 12.88 87.22L 12.88 51.24C 16.8 45.36 22.82 39.76 30.66 39.76C 41.72 39.76 47.32 48.86 47.32 68.04C 47.32 87.36 40.88 96.18 29.12 96.18Z"/>
        <path id="path1_fill" d="M 110.845 29.54C 89.845 29.54 77.805 45.36 77.805 68.18C 77.805 91.56 89.705 106.68 110.705 106.68C 131.565 106.68 143.605 90.86 143.605 68.04C 143.605 44.66 131.845 29.54 110.845 29.54ZM 110.845 39.9C 123.025 39.9 129.745 48.86 129.745 68.04C 129.745 87.36 123.025 96.32 110.705 96.32C 98.385 96.32 91.665 87.36 91.665 68.18C 91.665 48.86 98.525 39.9 110.845 39.9Z"/>
        <path id="path2_fill" d="M 196.943 29.54C 187.983 29.54 181.123 35.14 177.203 46.2L 175.943 31.22L 164.883 31.22L 164.883 105L 177.763 105L 177.763 62.86C 180.843 48.72 186.163 42.14 195.403 42.14C 198.063 42.14 199.603 42.42 201.843 42.98L 204.223 30.38C 201.983 29.82 199.323 29.54 196.943 29.54Z"/>
        <path id="path3_fill" d="M 257.494 101.64L 252.594 92.82C 248.954 95.06 246.014 96.04 242.794 96.04C 236.354 96.04 233.974 92.54 233.974 85.12L 233.974 41.16L 250.074 41.16L 251.474 31.22L 233.974 31.22L 233.974 13.02L 221.094 14.56L 221.094 31.22L 208.214 31.22L 208.214 41.16L 221.094 41.16L 221.094 85.68C 221.094 99.4 228.514 106.68 240.974 106.68C 247.274 106.68 252.594 105 257.494 101.64Z"/>
        <path id="path4_fill" d="M 320.54 87.78L 320.54 54.04C 320.54 38.64 312.42 29.54 294.64 29.54C 286.38 29.54 278.26 31.22 269.16 34.58L 272.38 43.96C 279.94 41.44 286.8 40.04 292.26 40.04C 302.48 40.04 307.66 43.96 307.66 54.6L 307.66 60.06L 296.32 60.06C 275.74 60.06 263.84 68.6 263.84 84.42C 263.84 97.58 272.66 106.68 287.36 106.68C 296.32 106.68 304.16 103.32 309.34 95.62C 311.58 102.9 316.34 105.84 323.76 106.68L 326.7 97.72C 322.92 96.32 320.54 94.22 320.54 87.78ZM 290.3 97.02C 281.9 97.02 277.56 92.4 277.56 83.72C 277.56 73.64 284.42 68.6 298 68.6L 307.66 68.6L 307.66 85.54C 303.46 93.24 297.86 97.02 290.3 97.02Z"/>
        <path id="path5_fill" d="M 359.172 90.16L 359.172 0L 346.292 1.54L 346.292 90.44C 346.292 101.08 351.612 106.68 360.992 106.68C 364.772 106.68 368.412 105.84 371.912 104.16L 368.552 95.2C 367.152 95.76 365.612 96.04 363.792 96.04C 360.432 96.04 359.172 94.08 359.172 90.16Z"/>
        <path id="path6_fill" d="M 34.72 29.26C 25.48 29.26 18.2 33.88 12.88 41.16L 12.88 0L 0 1.4L 0 104.72L 12.88 104.72L 12.88 52.22C 17.78 44.52 23.52 39.34 31.5 39.34C 38.5 39.34 43.26 42.56 43.26 53.62L 43.26 104.72L 56.14 104.72L 56.14 51.8C 56.14 37.94 48.16 29.26 34.72 29.26Z"/>
        <path id="path7_fill" d="M 109.751 29.26C 88.7512 29.26 76.7113 45.08 76.7113 67.9C 76.7113 91.28 88.6112 106.4 109.611 106.4C 130.471 106.4 142.511 90.58 142.511 67.76C 142.511 44.38 130.751 29.26 109.751 29.26ZM 109.751 39.62C 121.931 39.62 128.651 48.58 128.651 67.76C 128.651 87.08 121.931 96.04 109.611 96.04C 97.2912 96.04 90.5712 87.08 90.5712 67.9C 90.5712 48.58 97.4312 39.62 109.751 39.62Z"/>
        <path id="path8_fill" d="M 237.849 29.26C 227.909 29.26 221.189 34.58 215.869 42.56C 213.069 34.16 206.349 29.26 197.249 29.26C 187.589 29.26 180.869 34.3 175.969 41.72L 174.849 30.94L 163.789 30.94L 163.789 104.72L 176.669 104.72L 176.669 52.36C 181.569 44.52 186.049 39.34 194.029 39.34C 199.629 39.34 204.389 42.56 204.389 53.62L 204.389 104.72L 217.269 104.72L 217.269 52.36C 222.309 44.52 226.649 39.34 234.629 39.34C 240.229 39.34 244.989 42.56 244.989 53.62L 244.989 104.72L 257.869 104.72L 257.869 51.8C 257.869 37.94 249.889 29.26 237.849 29.26Z"/>
        <path id="path9_fill" d="M 339.548 65.66C 339.548 43.12 329.048 29.26 309.168 29.26C 290.128 29.26 278.508 45.64 278.508 68.6C 278.508 91.98 290.548 106.4 311.128 106.4C 321.348 106.4 329.608 102.9 336.888 97.16L 331.288 89.46C 324.848 93.94 319.388 95.9 312.108 95.9C 301.468 95.9 293.488 89.32 292.228 72.24L 339.268 72.24C 339.408 70.56 339.548 68.18 339.548 65.66ZM 326.808 62.72L 292.228 62.72C 293.208 46.34 299.648 39.48 309.448 39.48C 321.068 39.48 326.808 47.46 326.808 61.88L 326.808 62.72Z"/>
        <path id="path10_fill" d="M 34.6666 0L 34.9569 0.551893L 143 20.8277L 143 66.0064L 87 122.006C 86.1648 122.855 85.8919 123.92 86.1325 124.955L 38.4484 39.6628C 36.9929 37.1517 33.3151 37.607 32.4877 40.3987L 7.21952 125.597C 7.04737 126.158 6.71051 126.646 6.25834 126.988C 5.80617 127.331 5.26248 127.511 4.707 127.501L 2.61467 127.501C 2.21764 127.513 1.82366 127.425 1.46417 127.246C 1.10469 127.066 0.789665 126.8 0.544284 126.469C 0.298902 126.137 0.129951 125.749 0.0509264 125.336C -0.0280983 124.923 -0.0150021 124.496 0.0891586 124.089L 34.6666 0Z"/>
        <path id="path11_fill" d="M 3.02369 34.1462L 6.80979 33.5667C 7.42036 33.4849 7.9826 33.1719 8.39323 32.6852C 8.80387 32.1986 9.03532 31.5709 9.04507 30.9177L 9.04507 2.69747C 9.03572 2.2555 8.92649 1.82238 8.72656 1.43459C 8.52664 1.04679 8.24188 0.715667 7.89627 0.469094C 7.55065 0.22252 7.1543 0.0677136 6.74057 0.0177083C 6.32685 -0.032297 5.90786 0.0239664 5.51889 0.181754L 1.73277 1.59828C 1.2334 1.77424 0.798127 2.11112 0.487551 2.56203C 0.176974 3.01294 0.0065479 3.55544 -3.1728e-06 4.114L -3.1728e-06 31.4925C 0.00923888 31.8872 0.0981438 32.2752 0.260709 32.6303C 0.423273 32.9854 0.655716 33.2993 0.942332 33.5508C 1.22895 33.8024 1.56307 33.9857 1.92213 34.0884C 2.28119 34.1911 2.65684 34.2108 3.02369 34.1462Z"/>
        <path id="path12_fill" d="M 202.147 0.251929L 131.567 29.5621C 131.172 29.7247 130.81 29.9667 130.501 30.275L 94.5461 66.3872L 94.5461 46.6478C 94.5355 45.8415 94.2544 45.0657 93.7534 44.4596C 93.2524 43.8536 92.5643 43.457 91.8127 43.3411L 60.7792 37.6932C 60.318 37.604 59.8441 37.622 59.39 37.7459C 58.936 37.8699 58.5126 38.0968 58.1491 38.411C 57.7856 38.7253 57.4905 39.1195 57.2842 39.5664C 57.0779 40.0133 56.9653 40.5024 56.9541 41L 56.9541 104.5L 0.953963 160.5C -1.13836 162.602 0.452242 166 3.38929 166L 124.683 166C 125.144 166.002 125.6 165.903 126.023 165.709C 126.445 165.515 126.826 165.23 127.14 164.873L 201.852 45.8246C 202.194 45.4381 202.613 45.1374 203.078 44.9444C 203.543 44.7514 204.042 44.6709 204.54 44.7087C 205.038 44.7466 205.522 44.902 205.956 45.1634C 206.391 45.4249 206.764 45.7859 207.051 46.2201L 282.426 164.417C 282.732 164.889 283.142 165.274 283.62 165.539C 284.098 165.805 284.629 165.942 285.169 165.94L 300.404 165.967C 302.981 165.967 304.554 163.079 303.194 160.844L 206.158 1.56268C 205.731 0.89152 205.1 0.395673 204.37 0.157291C 203.641 -0.0810916 202.856 -0.0477015 202.147 0.251929Z"/>
        <path id="path13_fill" d="M 3.09734 44.2482L 20.3861 45.1359C 20.8234 45.1703 21.2627 45.1098 21.6772 44.958C 22.0917 44.8062 22.4728 44.5664 22.7971 44.253C 23.1214 43.9397 23.3822 43.5595 23.5635 43.1357C 23.7448 42.7118 23.8428 42.2531 23.8516 41.7877L 23.8516 5.51445C 23.8386 4.68175 23.538 3.88312 23.007 3.27016C 22.4759 2.65719 21.7514 2.27257 20.9709 2.18929L 3.67781 0.0323032C 3.22594 -0.0339493 2.76599 0.00197092 2.32812 0.137709C 1.89026 0.273447 1.48437 0.505933 1.13708 0.81992C 0.789793 1.13391 0.508963 1.5223 0.312998 1.95962C 0.117033 2.39694 0.0103678 2.8733 1.0576e-06 3.35746L 1.0576e-06 40.9047C 0.0160693 41.7766 0.345978 42.609 0.921991 43.2308C 1.498 43.8526 2.27641 44.2166 3.09734 44.2482Z"/>
    </defs>
</svg>
